<?xml version="1.0" standalone="no"?>
<!DOCTYPE svg PUBLIC "-//W3C//DTD SVG 20010904//EN"
 "http://www.w3.org/TR/2001/REC-SVG-20010904/DTD/svg10.dtd">
<svg version="1.0" xmlns="http://www.w3.org/2000/svg"
 width="300.000000pt" height="300.000000pt" viewBox="0 0 300.000000 300.000000"
 preserveAspectRatio="xMidYMid meet">
<metadata>
Created by potrace 1.11, written by Peter Selinger 2001-2013
</metadata>
<g transform="translate(0.000000,300.000000) scale(0.100000,-0.100000)"
fill="#000000" stroke="none">
<path d="M265 2847 c-42 -16 -67 -36 -96 -75 l-24 -34 -5 -1224 c-3 -673 -2
-1224 3 -1224 4 0 7 -6 7 -14 0 -24 32 -72 61 -92 15 -10 25 -23 22 -29 -4 -5
-3 -7 1 -3 4 3 22 2 39 -3 19 -6 519 -10 1235 -10 l1202 0 44 22 c46 22 79 59
97 106 11 30 15 2405 4 2445 -19 68 -67 121 -125 138 -53 15 -2426 12 -2465
-3z"/>
</g>
</svg>
